<?xml version="1.0" encoding="UTF-8" standalone="no"?>
<svg
   xmlns:dc="http://purl.org/dc/elements/1.1/"
   xmlns:cc="http://creativecommons.org/ns#"
   xmlns:rdf="http://www.w3.org/1999/02/22-rdf-syntax-ns#"
   xmlns:svg="http://www.w3.org/2000/svg"
   xmlns="http://www.w3.org/2000/svg"
   id="svg2782"
   version="1.1"
   viewBox="0 0 174.55251 18.529663"
   height="18.529663mm"
   width="174.55251mm">
  <defs
     id="defs2776" />
  <metadata
     id="metadata2779">
    <rdf:RDF>
      <cc:Work
         rdf:about="">
        <dc:format>image/svg+xml</dc:format>
        <dc:type
           rdf:resource="http://purl.org/dc/dcmitype/StillImage" />
        <dc:title></dc:title>
      </cc:Work>
    </rdf:RDF>
  </metadata>
  <g
     transform="translate(128.85363,1.0386405)"
     id="layer1">
    <g
       transform="matrix(0.08357217,0,0,0.08357217,-130.43396,-10.308674)"
       id="g1476">
      <path
         style="display:inline;opacity:0.99199997;fill:#226699;fill-opacity:1;stroke:none;stroke-width:1.47188854;stroke-linecap:round;stroke-linejoin:round;stroke-miterlimit:10;stroke-dasharray:none;stroke-opacity:0.86666667"
         d="m 34.949069,137.63577 c -8.885743,-1e-5 -16.03933,7.15358 -16.03933,16.03933 v 154.30427 c 0,8.88574 7.153587,16.03933 16.03933,16.03933 H 144.75787 a 26.269344,18.798588 0 0 0 22.08754,8.62428 26.269344,18.798588 0 0 0 22.05757,-8.62428 h 108.767 c 8.88574,0 16.03933,-7.15359 16.03933,-16.03933 V 153.6751 c 0,-8.88575 -7.15359,-16.03933 -16.03933,-16.03933 z"
         id="path1462" />
      <ellipse
         ry="17.863144"
         rx="17.382631"
         cy="297.95016"
         cx="166.53026"
         id="ellipse1464"
         style="display:inline;opacity:1;fill:#292f33;fill-opacity:1;stroke:none;stroke-width:0.52315569;stroke-linecap:round;stroke-linejoin:round;stroke-miterlimit:10;stroke-dasharray:none;stroke-opacity:0.86666667" />
      <g
         transform="translate(57.421248,74.018754)"
         style="display:inline"
         id="g1470">
        <path
           style="display:inline;opacity:1;fill:#99aab5;fill-opacity:1;stroke:none;stroke-width:3.66395473;stroke-linecap:round;stroke-linejoin:round;stroke-miterlimit:10;stroke-dasharray:none;stroke-opacity:0.86666667"
           d="m -25.216797,133.77148 c -32.562306,0 -58.775391,26.21309 -58.775391,58.7754 v 565.45703 c 0,32.5623 26.213085,58.77734 58.775391,58.77734 H 355.7207 c 32.54921,0 58.75432,-26.19418 58.77539,-58.73828 0.0211,32.54408 26.2262,58.73828 58.77539,58.73828 h 380.93555 c 32.56231,0 58.77735,-26.21504 58.77735,-58.77734 V 192.54688 c -10e-6,-32.56231 -26.21504,-58.7754 -58.77735,-58.7754 H 473.27148 c -32.54919,0 -58.75428,26.19225 -58.77539,58.73633 -0.0211,-32.5441 -26.22618,-58.73633 -58.77539,-58.73633 z"
           transform="matrix(0.26458333,0,0,0.26458333,-1.1783871,17.980522)"
           id="path1466" />
        <path
           id="path1468"
           d="m 209.6309,53.374058 c 6.64289,-0.422443 14.12016,6.297591 14.12016,14.12016 V 203.33613 c 0,7.82257 -7.49252,13.50302 -14.12016,14.12016 -34.56763,3.2188 -70.82162,-36.82121 -101.14086,-0.28896 V 60.946115 C 126.20596,10.53346 178.21921,55.371629 209.6309,53.374058 Z"
           style="display:inline;opacity:1;fill:#ccd6dd;fill-opacity:1;stroke:none;stroke-width:0.86353612;stroke-linecap:round;stroke-linejoin:round;stroke-miterlimit:10;stroke-dasharray:none;stroke-opacity:0.86666667" />
      </g>
      <g
         style="display:inline"
         id="g1474"
         transform="translate(147.89798,77.760526)">
        <path
           style="display:inline;opacity:1;fill:#e1e8ed;fill-opacity:1;stroke:none;stroke-width:0.86353612;stroke-linecap:round;stroke-linejoin:round;stroke-miterlimit:10;stroke-dasharray:none;stroke-opacity:0.86666667"
           d="m -83.127092,49.632285 c -6.64289,-0.422443 -14.12016,6.297591 -14.12016,14.12016 V 199.59436 c 0,7.82257 7.49252,13.50302 14.12016,14.12016 34.56763,3.2188 70.82162,-36.82121 101.140863,-0.28896 V 57.204342 C 0.297848,6.7916866 -51.715402,51.629856 -83.127092,49.632285 Z"
           id="path1472" />
      </g>
    </g>
    <g
       id="text1536"
       style="font-style:normal;font-variant:normal;font-weight:normal;font-stretch:normal;font-size:8.01536655px;line-height:1;font-family:'Slabo 27px';-inkscape-font-specification:'Slabo 27px, ';font-variant-ligatures:normal;font-variant-caps:normal;font-variant-numeric:normal;font-feature-settings:normal;text-align:start;letter-spacing:0px;word-spacing:0px;writing-mode:lr-tb;text-anchor:start;fill:#ffffff;fill-opacity:1;stroke:none;stroke-width:0.20038417"
       aria-label="LES CONTEURS DU DIGITAL"
       transform="translate(-234.56932,-317.75486)">
      <path
         id="path1951"
         style="font-style:normal;font-variant:normal;font-weight:normal;font-stretch:normal;font-size:8.01536655px;line-height:1;font-family:Sanchez;-inkscape-font-specification:Sanchez;font-variant-ligatures:normal;font-variant-caps:normal;font-variant-numeric:normal;font-feature-settings:normal;text-align:start;letter-spacing:1.34427953px;writing-mode:lr-tb;text-anchor:start;fill:#ffffff;stroke-width:0.20038417"
         d="m 140.80123,329.97531 h -4.38441 q -0.1042,0 -0.1042,-0.0962 v -0.40879 q 0,-0.0962 0.1042,-0.0962 h 0.60917 v -4.55273 h -0.60917 q -0.1042,0 -0.1042,-0.0962 v -0.40879 q 0,-0.0962 0.1042,-0.0962 h 1.91568 q 0.1042,0 0.1042,0.1042 v 0.39275 q 0,0.1042 -0.1042,0.1042 h -0.60917 v 4.55273 h 2.54889 v -0.78551 q 0,-0.0962 0.1042,-0.0962 h 0.43283 q 0.0962,0 0.0962,0.0962 v 1.28246 q 0,0.1042 -0.1042,0.1042 z" />
      <path
         id="path1953"
         style="font-style:normal;font-variant:normal;font-weight:normal;font-stretch:normal;font-size:8.01536655px;line-height:1;font-family:Sanchez;-inkscape-font-specification:Sanchez;font-variant-ligatures:normal;font-variant-caps:normal;font-variant-numeric:normal;font-feature-settings:normal;text-align:start;letter-spacing:1.34427953px;writing-mode:lr-tb;text-anchor:start;fill:#ffffff;stroke-width:0.20038417"
         d="m 147.07383,329.97531 h -4.25616 q -0.1042,0 -0.1042,-0.0962 v -0.40879 q 0,-0.0962 0.1042,-0.0962 h 0.60917 v -4.55273 h -0.60917 q -0.1042,0 -0.1042,-0.0962 v -0.40879 q 0,-0.0962 0.1042,-0.0962 h 4.25616 q 0.1042,0 0.1042,0.0962 v 1.29048 q 0,0.1042 -0.1042,0.1042 H 146.641 q -0.0962,0 -0.0962,-0.1042 v -0.78551 h -2.42064 v 1.98781 h 2.02789 q 0.10419,0 0.10419,0.0962 v 0.40878 q 0,0.0962 -0.10419,0.0962 h -2.02789 v 1.96377 h 2.41262 v -0.78551 q 0,-0.0962 0.1042,-0.0962 h 0.43283 q 0.1042,0 0.1042,0.0962 v 1.29048 q 0,0.0962 -0.1042,0.0962 z" />
      <path
         id="path1955"
         style="font-style:normal;font-variant:normal;font-weight:normal;font-stretch:normal;font-size:8.01536655px;line-height:1;font-family:Sanchez;-inkscape-font-specification:Sanchez;font-variant-ligatures:normal;font-variant-caps:normal;font-variant-numeric:normal;font-feature-settings:normal;text-align:start;letter-spacing:1.34427953px;writing-mode:lr-tb;text-anchor:start;fill:#ffffff;stroke-width:0.20038417"
         d="m 149.83959,329.97531 h -0.44886 q -0.1042,0 -0.1042,-0.0962 v -1.8756 q 0,-0.1042 0.1042,-0.1042 h 0.50496 q 0.0962,0 0.0962,0.1042 v 0.16832 q 0,0.1523 0.18435,0.40879 0.18436,0.24847 0.36871,0.40878 0.18435,0.16031 0.48894,0.28054 0.3126,0.11221 0.67329,0.11221 0.61718,0 0.96184,-0.25649 0.35268,-0.25649 0.35268,-0.71337 0,-0.2645 -0.20039,-0.44886 -0.19237,-0.19236 -0.50497,-0.30458 -0.31259,-0.11221 -0.69733,-0.2084 -0.37672,-0.0962 -0.76146,-0.21641 -0.37672,-0.12825 -0.68932,-0.29657 -0.3126,-0.17634 -0.51299,-0.48092 -0.19237,-0.3126 -0.19237,-0.7294 0,-0.67329 0.50497,-1.11414 0.51299,-0.44084 1.37063,-0.44084 1.08207,0 1.58704,0.63321 l -0.016,-0.49695 q 0,-0.0962 0.1042,-0.0962 h 0.44886 q 0.0962,0 0.0962,0.0962 v 1.74735 q 0,0.0962 -0.0962,0.0962 h -0.50497 q -0.0962,0 -0.0962,-0.0962 v -0.22443 q 0,-0.32863 -0.36871,-0.66528 -0.3687,-0.33664 -1.08207,-0.33664 -0.52902,0 -0.85765,0.25649 -0.32061,0.24847 -0.32061,0.64123 0,0.28053 0.20038,0.48092 0.20039,0.20038 0.521,0.32061 0.32062,0.12023 0.70535,0.22443 0.38474,0.0962 0.76948,0.21642 0.38474,0.12023 0.70535,0.28855 0.32062,0.16832 0.521,0.46489 0.20039,0.28856 0.20039,0.68932 0,0.70536 -0.50497,1.16223 -0.50497,0.45688 -1.50689,0.45688 -0.73742,0 -1.21834,-0.29657 -0.48092,-0.29657 -0.69733,-0.64123 l 0.008,0.78551 q 0,0.0962 -0.0962,0.0962 z" />
      <path
         id="path1957"
         style="font-style:normal;font-variant:normal;font-weight:normal;font-stretch:normal;font-size:8.01536655px;line-height:1;font-family:Sanchez;-inkscape-font-specification:Sanchez;font-variant-ligatures:normal;font-variant-caps:normal;font-variant-numeric:normal;font-feature-settings:normal;text-align:start;letter-spacing:1.34427953px;writing-mode:lr-tb;text-anchor:start;fill:#ffffff;stroke-width:0.20038417"
         d="m 165.02022,328.52453 q 0.0401,0.0321 0.0401,0.0801 0,0.0401 -0.0401,0.12023 -0.0321,0.0721 -0.12023,0.20039 -0.0802,0.12023 -0.29657,0.33664 -0.21641,0.21642 -0.47291,0.37673 -0.25649,0.15229 -0.6813,0.27252 -0.4168,0.12023 -0.89772,0.12023 -1.17025,0 -1.95575,-0.81757 -0.77749,-0.81757 -0.77749,-2.1401 0,-1.33055 0.7855,-2.11606 0.79352,-0.7855 1.90766,-0.7855 1.24238,0 1.80346,0.85764 l -0.008,-0.71337 q -0.016,-0.0962 0.0962,-0.0962 h 0.44886 q 0.1042,0 0.1042,0.0962 v 1.74735 q 0,0.1042 -0.1042,0.1042 h -0.50497 q -0.0962,0 -0.0962,-0.1042 v -0.0721 q 0,-0.3687 -0.50497,-0.76146 -0.49696,-0.40076 -1.24238,-0.40076 -0.74543,0 -1.34659,0.59313 -0.59313,0.58512 -0.59313,1.6672 0,1.07406 0.60115,1.67521 0.60115,0.59314 1.4107,0.59314 0.87368,0 1.37865,-0.39275 0.39275,-0.30459 0.5771,-0.61719 0.0641,-0.12023 0.15229,-0.0481 z" />
      <path
         id="path1959"
         style="font-style:normal;font-variant:normal;font-weight:normal;font-stretch:normal;font-size:8.01536655px;line-height:1;font-family:Sanchez;-inkscape-font-specification:Sanchez;font-variant-ligatures:normal;font-variant-caps:normal;font-variant-numeric:normal;font-feature-settings:normal;text-align:start;letter-spacing:1.34427953px;writing-mode:lr-tb;text-anchor:start;fill:#ffffff;stroke-width:0.20038417"
         d="m 172.61185,327.07375 q 0,1.31452 -0.79352,2.1401 -0.78551,0.81757 -1.98781,0.81757 -1.19429,0 -1.99583,-0.82558 -0.80153,-0.8336 -0.80153,-2.14011 0,-1.31452 0.82558,-2.10002 0.82558,-0.79352 1.97178,-0.79352 1.1462,0 1.96376,0.79352 0.81757,0.7855 0.81757,2.10804 z m -4.21608,1.69926 q 0.61718,0.60916 1.43475,0.60916 0.81757,0 1.42673,-0.60916 0.60917,-0.61719 0.60917,-1.68323 0,-1.07406 -0.6252,-1.67521 -0.61718,-0.60917 -1.4107,-0.60917 -0.79352,0 -1.41872,0.60917 -0.6252,0.60115 -0.6252,1.67521 0,1.06604 0.60917,1.68323 z" />
      <path
         id="path1961"
         style="font-style:normal;font-variant:normal;font-weight:normal;font-stretch:normal;font-size:8.01536655px;line-height:1;font-family:Sanchez;-inkscape-font-specification:Sanchez;font-variant-ligatures:normal;font-variant-caps:normal;font-variant-numeric:normal;font-feature-settings:normal;text-align:start;letter-spacing:1.34427953px;writing-mode:lr-tb;text-anchor:start;fill:#ffffff;stroke-width:0.20038417"
         d="m 179.34321,329.97531 h -0.43283 q -0.15229,0 -0.24046,-0.0561 -0.0882,-0.0641 -0.16833,-0.19237 l -2.31644,-3.62294 -0.40077,-0.67329 h -0.016 v 3.94356 h 0.61719 q 0.1042,0 0.1042,0.0962 v 0.40879 q 0,0.0962 -0.1042,0.0962 h -1.92369 q -0.1042,0 -0.1042,-0.0962 v -0.40879 q 0,-0.0962 0.1042,-0.0962 h 0.60917 v -4.55273 h -0.60917 q -0.1042,0 -0.1042,-0.0962 v -0.40879 q 0,-0.0962 0.1042,-0.0962 h 1.12215 q 0.23245,0 0.40878,0.27252 l 2.28438,3.57485 0.45688,0.77749 h 0.016 v -4.02371 h -0.61718 q -0.0962,0 -0.0962,-0.0962 v -0.40879 q 0,-0.0962 0.0962,-0.0962 h 1.9317 q 0.0962,0 0.0962,0.0962 v 0.40879 q 0,0.0962 -0.0962,0.0962 h -0.61718 v 5.0577 q 0,0.0962 -0.1042,0.0962 z" />
      <path
         id="path1963"
         style="font-style:normal;font-variant:normal;font-weight:normal;font-stretch:normal;font-size:8.01536655px;line-height:1;font-family:Sanchez;-inkscape-font-specification:Sanchez;font-variant-ligatures:normal;font-variant-caps:normal;font-variant-numeric:normal;font-feature-settings:normal;text-align:start;letter-spacing:1.34427953px;writing-mode:lr-tb;text-anchor:start;fill:#ffffff;stroke-width:0.20038417"
         d="m 185.58275,329.97531 h -1.86758 q -0.1042,0 -0.1042,-0.1042 v -0.39275 q 0,-0.1042 0.1042,-0.1042 h 0.60917 v -4.55273 h -1.51491 v 0.84963 q 0,0.11221 -0.11221,0.11221 h -0.44886 q -0.11222,0 -0.11222,-0.11221 v -1.34658 q 0,-0.1042 0.11222,-0.1042 h 4.83326 q 0.11222,0 0.11222,0.1042 v 1.34658 q 0,0.11221 -0.11222,0.11221 h -0.45687 q -0.1042,0 -0.1042,-0.11221 v -0.84963 h -1.49888 v 4.55273 h 0.56108 q 0.11221,0 0.11221,0.1042 v 0.39275 q 0,0.1042 -0.11221,0.1042 z" />
      <path
         id="path1965"
         style="font-style:normal;font-variant:normal;font-weight:normal;font-stretch:normal;font-size:8.01536655px;line-height:1;font-family:Sanchez;-inkscape-font-specification:Sanchez;font-variant-ligatures:normal;font-variant-caps:normal;font-variant-numeric:normal;font-feature-settings:normal;text-align:start;letter-spacing:1.34427953px;writing-mode:lr-tb;text-anchor:start;fill:#ffffff;stroke-width:0.20038417"
         d="m 193.60182,329.97531 h -4.25616 q -0.10419,0 -0.10419,-0.0962 v -0.40879 q 0,-0.0962 0.10419,-0.0962 h 0.60917 v -4.55273 h -0.60917 q -0.10419,0 -0.10419,-0.0962 v -0.40879 q 0,-0.0962 0.10419,-0.0962 h 4.25616 q 0.1042,0 0.1042,0.0962 v 1.29048 q 0,0.1042 -0.1042,0.1042 h -0.43283 q -0.0962,0 -0.0962,-0.1042 v -0.78551 h -2.42064 v 1.98781 h 2.02789 q 0.1042,0 0.1042,0.0962 v 0.40878 q 0,0.0962 -0.1042,0.0962 h -2.02789 v 1.96377 h 2.41263 v -0.78551 q 0,-0.0962 0.10419,-0.0962 h 0.43283 q 0.1042,0 0.1042,0.0962 v 1.29048 q 0,0.0962 -0.1042,0.0962 z" />
      <path
         id="path1967"
         style="font-style:normal;font-variant:normal;font-weight:normal;font-stretch:normal;font-size:8.01536655px;line-height:1;font-family:Sanchez;-inkscape-font-specification:Sanchez;font-variant-ligatures:normal;font-variant-caps:normal;font-variant-numeric:normal;font-feature-settings:normal;text-align:start;letter-spacing:1.34427953px;writing-mode:lr-tb;text-anchor:start;fill:#ffffff;stroke-width:0.20038417"
         d="m 200.15885,327.89132 v -3.06989 h -0.61719 q -0.0962,0 -0.0962,-0.0962 v -0.40879 q 0,-0.0962 0.0962,-0.0962 h 1.93171 q 0.0962,0 0.0962,0.0962 v 0.40879 q 0,0.0962 -0.0962,0.0962 h -0.61719 v 2.99775 q 0,1.08207 -0.56909,1.65116 -0.56107,0.56108 -1.59506,0.56108 -1.02596,0 -1.59505,-0.56108 -0.5691,-0.56909 -0.5691,-1.65116 v -2.99775 h -0.60916 q -0.1042,0 -0.1042,-0.0962 v -0.40879 q 0,-0.0962 0.1042,-0.0962 h 1.92368 q 0.1042,0 0.1042,0.0962 v 0.40879 q 0,0.0962 -0.1042,0.0962 h -0.61718 v 3.02179 q 0,1.53895 1.47483,1.53895 0.75344,0 1.10612,-0.39275 0.35268,-0.40077 0.35268,-1.0981 z" />
      <path
         id="path1969"
         style="font-style:normal;font-variant:normal;font-weight:normal;font-stretch:normal;font-size:8.01536655px;line-height:1;font-family:Sanchez;-inkscape-font-specification:Sanchez;font-variant-ligatures:normal;font-variant-caps:normal;font-variant-numeric:normal;font-feature-settings:normal;text-align:start;letter-spacing:1.34427953px;writing-mode:lr-tb;text-anchor:start;fill:#ffffff;stroke-width:0.20038417"
         d="m 208.3331,329.97531 h -0.69734 q -0.28855,0 -0.48092,-0.38474 l -0.75345,-1.53093 q -0.0962,-0.20039 -0.2084,-0.29657 -0.1042,-0.0962 -0.29657,-0.1042 h -1.01795 v 1.71529 h 0.72139 q 0.0962,0 0.0962,0.0962 v 0.40879 q 0,0.0962 -0.0962,0.0962 h -2.02789 q -0.1042,0 -0.1042,-0.0962 v -0.40879 q 0,-0.0962 0.1042,-0.0962 h 0.60917 v -4.55273 h -0.60917 q -0.1042,0 -0.1042,-0.0962 v -0.40879 q 0,-0.0962 0.1042,-0.0962 h 2.46873 q 0.85765,0 1.39467,0.45687 0.53703,0.44886 0.53703,1.27445 0,1.25841 -1.17825,1.57101 0.15229,0.12023 0.37672,0.53703 l 0.67329,1.31452 h 0.48894 q 0.0962,0 0.0962,0.0962 v 0.40879 q 0,0.0962 -0.0962,0.0962 z m -3.45463,-2.88553 h 1.02597 q 1.36261,0 1.36261,-1.11414 0,-1.15421 -1.36261,-1.15421 h -1.02597 z" />
      <path
         id="path1971"
         style="font-style:normal;font-variant:normal;font-weight:normal;font-stretch:normal;font-size:8.01536655px;line-height:1;font-family:Sanchez;-inkscape-font-specification:Sanchez;font-variant-ligatures:normal;font-variant-caps:normal;font-variant-numeric:normal;font-feature-settings:normal;text-align:start;letter-spacing:1.34427953px;writing-mode:lr-tb;text-anchor:start;fill:#ffffff;stroke-width:0.20038417"
         d="m 210.84436,329.97531 h -0.44886 q -0.1042,0 -0.1042,-0.0962 v -1.8756 q 0,-0.1042 0.1042,-0.1042 h 0.50497 q 0.0962,0 0.0962,0.1042 v 0.16832 q 0,0.1523 0.18436,0.40879 0.18435,0.24847 0.3687,0.40878 0.18436,0.16031 0.48894,0.28054 0.3126,0.11221 0.67329,0.11221 0.61718,0 0.96185,-0.25649 0.35267,-0.25649 0.35267,-0.71337 0,-0.2645 -0.20038,-0.44886 -0.19237,-0.19236 -0.50497,-0.30458 -0.3126,-0.11221 -0.69734,-0.2084 -0.37672,-0.0962 -0.76146,-0.21641 -0.37672,-0.12825 -0.68932,-0.29657 -0.3126,-0.17634 -0.51298,-0.48092 -0.19237,-0.3126 -0.19237,-0.7294 0,-0.67329 0.50497,-1.11414 0.51298,-0.44084 1.37062,-0.44084 1.08208,0 1.58705,0.63321 l -0.016,-0.49695 q 0,-0.0962 0.1042,-0.0962 h 0.44886 q 0.0962,0 0.0962,0.0962 v 1.74735 q 0,0.0962 -0.0962,0.0962 h -0.50497 q -0.0962,0 -0.0962,-0.0962 v -0.22443 q 0,-0.32863 -0.3687,-0.66528 -0.36871,-0.33664 -1.08208,-0.33664 -0.52901,0 -0.85764,0.25649 -0.32062,0.24847 -0.32062,0.64123 0,0.28053 0.20039,0.48092 0.20038,0.20038 0.521,0.32061 0.32061,0.12023 0.70535,0.22443 0.38474,0.0962 0.76947,0.21642 0.38474,0.12023 0.70536,0.28855 0.32061,0.16832 0.521,0.46489 0.20038,0.28856 0.20038,0.68932 0,0.70536 -0.50497,1.16223 -0.50497,0.45688 -1.50689,0.45688 -0.73741,0 -1.21833,-0.29657 -0.48093,-0.29657 -0.69734,-0.64123 l 0.008,0.78551 q 0,0.0962 -0.0962,0.0962 z" />
      <path
         id="path1973"
         style="font-style:normal;font-variant:normal;font-weight:normal;font-stretch:normal;font-size:8.01536655px;line-height:1;font-family:Sanchez;-inkscape-font-specification:Sanchez;font-variant-ligatures:normal;font-variant-caps:normal;font-variant-numeric:normal;font-feature-settings:normal;text-align:start;letter-spacing:1.34427953px;writing-mode:lr-tb;text-anchor:start;fill:#ffffff;stroke-width:0.20038417"
         d="m 223.17954,329.97531 h -2.30041 q -0.0962,0 -0.0962,-0.0962 v -0.40879 q 0,-0.0962 0.0962,-0.0962 h 0.61718 v -4.55273 h -0.61718 q -0.0962,0 -0.0962,-0.0962 v -0.40879 q 0,-0.0962 0.0962,-0.0962 h 2.16415 q 1.33055,0 2.11606,0.76947 0.7855,0.76146 0.7855,2.10003 0,1.33857 -0.74543,2.11606 -0.74543,0.76947 -2.01987,0.76947 z m -0.98589,-0.60115 h 0.79352 q 2.22827,-0.016 2.22827,-2.26835 0,-1.08207 -0.5771,-1.68323 -0.56909,-0.60115 -1.67521,-0.60115 h -0.76948 z" />
      <path
         id="path1975"
         style="font-style:normal;font-variant:normal;font-weight:normal;font-stretch:normal;font-size:8.01536655px;line-height:1;font-family:Sanchez;-inkscape-font-specification:Sanchez;font-variant-ligatures:normal;font-variant-caps:normal;font-variant-numeric:normal;font-feature-settings:normal;text-align:start;letter-spacing:1.34427953px;writing-mode:lr-tb;text-anchor:start;fill:#ffffff;stroke-width:0.20038417"
         d="m 232.0222,327.89132 v -3.06989 h -0.61719 q -0.0962,0 -0.0962,-0.0962 v -0.40879 q 0,-0.0962 0.0962,-0.0962 h 1.93171 q 0.0962,0 0.0962,0.0962 v 0.40879 q 0,0.0962 -0.0962,0.0962 h -0.61719 v 2.99775 q 0,1.08207 -0.56909,1.65116 -0.56107,0.56108 -1.59506,0.56108 -1.02596,0 -1.59505,-0.56108 -0.5691,-0.56909 -0.5691,-1.65116 v -2.99775 h -0.60916 q -0.1042,0 -0.1042,-0.0962 v -0.40879 q 0,-0.0962 0.1042,-0.0962 h 1.92368 q 0.1042,0 0.1042,0.0962 v 0.40879 q 0,0.0962 -0.1042,0.0962 h -0.61718 v 3.02179 q 0,1.53895 1.47483,1.53895 0.75344,0 1.10612,-0.39275 0.35268,-0.40077 0.35268,-1.0981 z" />
      <path
         id="path1977"
         style="font-style:normal;font-variant:normal;font-weight:normal;font-stretch:normal;font-size:8.01536655px;line-height:1;font-family:Sanchez;-inkscape-font-specification:Sanchez;font-variant-ligatures:normal;font-variant-caps:normal;font-variant-numeric:normal;font-feature-settings:normal;text-align:start;letter-spacing:1.34427953px;writing-mode:lr-tb;text-anchor:start;fill:#ffffff;stroke-width:0.20038417"
         d="m 241.75589,329.97531 h -2.30041 q -0.0962,0 -0.0962,-0.0962 v -0.40879 q 0,-0.0962 0.0962,-0.0962 h 0.61718 v -4.55273 h -0.61718 q -0.0962,0 -0.0962,-0.0962 v -0.40879 q 0,-0.0962 0.0962,-0.0962 h 2.16415 q 1.33055,0 2.11605,0.76947 0.78551,0.76146 0.78551,2.10003 0,1.33857 -0.74543,2.11606 -0.74543,0.76947 -2.01987,0.76947 z M 240.77,329.37416 h 0.79352 q 2.22827,-0.016 2.22827,-2.26835 0,-1.08207 -0.5771,-1.68323 -0.5691,-0.60115 -1.67522,-0.60115 H 240.77 Z" />
      <path
         id="path1979"
         style="font-style:normal;font-variant:normal;font-weight:normal;font-stretch:normal;font-size:8.01536655px;line-height:1;font-family:Sanchez;-inkscape-font-specification:Sanchez;font-variant-ligatures:normal;font-variant-caps:normal;font-variant-numeric:normal;font-feature-settings:normal;text-align:start;letter-spacing:1.34427953px;writing-mode:lr-tb;text-anchor:start;fill:#ffffff;stroke-width:0.20038417"
         d="m 248.40734,329.97531 h -1.92369 q -0.1042,0 -0.1042,-0.0962 v -0.40879 q 0,-0.0962 0.1042,-0.0962 h 0.60917 v -4.55273 h -0.60917 q -0.1042,0 -0.1042,-0.0962 v -0.40879 q 0,-0.0962 0.1042,-0.0962 h 1.92369 q 0.1042,0 0.1042,0.0962 v 0.40879 q 0,0.0962 -0.1042,0.0962 h -0.61719 v 4.55273 h 0.61719 q 0.1042,0 0.1042,0.0962 v 0.40879 q 0,0.0962 -0.1042,0.0962 z" />
      <path
         id="path1981"
         style="font-style:normal;font-variant:normal;font-weight:normal;font-stretch:normal;font-size:8.01536655px;line-height:1;font-family:Sanchez;-inkscape-font-specification:Sanchez;font-variant-ligatures:normal;font-variant-caps:normal;font-variant-numeric:normal;font-feature-settings:normal;text-align:start;letter-spacing:1.34427953px;writing-mode:lr-tb;text-anchor:start;fill:#ffffff;stroke-width:0.20038417"
         d="m 255.49964,329.97531 h -0.42482 q -0.1042,0 -0.1042,-0.0962 l 0.008,-0.55306 q -0.70536,0.70535 -1.88361,0.70535 -1.17025,0 -1.95575,-0.81757 -0.78551,-0.81757 -0.78551,-2.14812 0,-0.8897 0.39275,-1.56299 0.40077,-0.67329 1.00994,-1.00192 0.61718,-0.32863 1.33055,-0.32863 1.22635,0 1.76338,0.76146 l -0.008,-0.61719 q -0.016,-0.0962 0.0962,-0.0962 h 0.44886 q 0.1042,0 0.1042,0.0962 v 1.65117 q 0,0.0962 -0.1042,0.0962 h -0.50497 q -0.0962,0 -0.0962,-0.0962 v -0.0962 q 0,-0.35267 -0.48894,-0.69733 -0.48092,-0.34466 -1.23437,-0.34466 -0.75344,0 -1.36261,0.62519 -0.60115,0.61719 -0.60115,1.65919 0,1.03398 0.60917,1.64315 0.60916,0.60115 1.36261,0.60115 0.75344,0 1.18627,-0.24046 0.44085,-0.24046 0.65726,-0.56909 v -0.6252 h -1.49085 q -0.0962,0 -0.0962,-0.1042 v -0.36871 q 0,-0.0962 0.0962,-0.0962 h 2.07598 q 0.0962,0 0.0962,0.0962 v 2.42866 q 0,0.0962 -0.0962,0.0962 z" />
      <path
         id="path1983"
         style="font-style:normal;font-variant:normal;font-weight:normal;font-stretch:normal;font-size:8.01536655px;line-height:1;font-family:Sanchez;-inkscape-font-specification:Sanchez;font-variant-ligatures:normal;font-variant-caps:normal;font-variant-numeric:normal;font-feature-settings:normal;text-align:start;letter-spacing:1.34427953px;writing-mode:lr-tb;text-anchor:start;fill:#ffffff;stroke-width:0.20038417"
         d="m 259.76877,329.97531 h -1.92368 q -0.1042,0 -0.1042,-0.0962 v -0.40879 q 0,-0.0962 0.1042,-0.0962 h 0.60916 v -4.55273 h -0.60916 q -0.1042,0 -0.1042,-0.0962 v -0.40879 q 0,-0.0962 0.1042,-0.0962 h 1.92368 q 0.1042,0 0.1042,0.0962 v 0.40879 q 0,0.0962 -0.1042,0.0962 h -0.61718 v 4.55273 h 0.61718 q 0.1042,0 0.1042,0.0962 v 0.40879 q 0,0.0962 -0.1042,0.0962 z" />
      <path
         id="path1985"
         style="font-style:normal;font-variant:normal;font-weight:normal;font-stretch:normal;font-size:8.01536655px;line-height:1;font-family:Sanchez;-inkscape-font-specification:Sanchez;font-variant-ligatures:normal;font-variant-caps:normal;font-variant-numeric:normal;font-feature-settings:normal;text-align:start;letter-spacing:1.34427953px;writing-mode:lr-tb;text-anchor:start;fill:#ffffff;stroke-width:0.20038417"
         d="m 265.42795,329.97531 h -1.86758 q -0.1042,0 -0.1042,-0.1042 v -0.39275 q 0,-0.1042 0.1042,-0.1042 h 0.60917 v -4.55273 h -1.51491 v 0.84963 q 0,0.11221 -0.11221,0.11221 h -0.44886 q -0.11222,0 -0.11222,-0.11221 v -1.34658 q 0,-0.1042 0.11222,-0.1042 h 4.83326 q 0.11222,0 0.11222,0.1042 v 1.34658 q 0,0.11221 -0.11222,0.11221 h -0.45687 q -0.1042,0 -0.1042,-0.11221 v -0.84963 h -1.49888 v 4.55273 h 0.56108 q 0.11221,0 0.11221,0.1042 v 0.39275 q 0,0.1042 -0.11221,0.1042 z" />
      <path
         id="path1987"
         style="font-style:normal;font-variant:normal;font-weight:normal;font-stretch:normal;font-size:8.01536655px;line-height:1;font-family:Sanchez;-inkscape-font-specification:Sanchez;font-variant-ligatures:normal;font-variant-caps:normal;font-variant-numeric:normal;font-feature-settings:normal;text-align:start;letter-spacing:1.34427953px;writing-mode:lr-tb;text-anchor:start;fill:#ffffff;stroke-width:0.20038417"
         d="m 273.94975,329.97531 h -1.81148 q -0.0962,0 -0.0962,-0.0962 v -0.40879 q 0,-0.0962 0.0962,-0.0962 h 0.56108 l -0.521,-1.38666 h -2.23629 l -0.521,1.38666 h 0.56108 q 0.0962,0 0.0962,0.0962 v 0.40879 q 0,0.0962 -0.0962,0.0962 h -1.80346 q -0.0962,0 -0.0962,-0.0962 v -0.40879 q 0,-0.0962 0.0962,-0.0962 h 0.53703 l 1.72331,-4.55273 h -0.43283 q -0.1042,0 -0.1042,-0.0962 v -0.40879 q 0,-0.0962 0.1042,-0.0962 h 1.09009 q 0.19237,0 0.28855,0.0802 0.1042,0.0802 0.17634,0.26451 l 1.84353,4.80922 h 0.54505 q 0.0962,0 0.0962,0.0962 v 0.40879 q 0,0.0962 -0.0962,0.0962 z m -1.98781,-2.54087 -0.88971,-2.38056 h -0.024 l -0.89772,2.38056 z" />
      <path
         id="path1989"
         style="font-style:normal;font-variant:normal;font-weight:normal;font-stretch:normal;font-size:8.01536655px;line-height:1;font-family:Sanchez;-inkscape-font-specification:Sanchez;font-variant-ligatures:normal;font-variant-caps:normal;font-variant-numeric:normal;font-feature-settings:normal;text-align:start;letter-spacing:1.34427953px;writing-mode:lr-tb;text-anchor:start;fill:#ffffff;stroke-width:0.20038417"
         d="m 280.16398,329.97531 h -4.38441 q -0.1042,0 -0.1042,-0.0962 v -0.40879 q 0,-0.0962 0.1042,-0.0962 h 0.60917 v -4.55273 h -0.60917 q -0.1042,0 -0.1042,-0.0962 v -0.40879 q 0,-0.0962 0.1042,-0.0962 h 1.91567 q 0.1042,0 0.1042,0.1042 v 0.39275 q 0,0.1042 -0.1042,0.1042 h -0.60916 v 4.55273 h 2.54888 v -0.78551 q 0,-0.0962 0.1042,-0.0962 h 0.43283 q 0.0962,0 0.0962,0.0962 v 1.28246 q 0,0.1042 -0.1042,0.1042 z" />
    </g>
  </g>
</svg>
